<svg width="536" height="226" viewBox="0 0 536 226" xmlns="http://www.w3.org/2000/svg"><title>qcon-by-infoq</title><g fill="none" fill-rule="evenodd"><path d="M113.11 146.464c-5.42 3.048-11.39 5.294-17.909 6.898-6.52 1.604-13.432 2.326-20.737 2.326-22.386 0-40.295-7.058-53.727-21.175C7.305 120.396.55 101.546.55 77.964c0-12.913 2.042-24.384 6.127-34.57 4.084-10.187 10.211-18.85 18.38-26.069C31.577 11.55 38.96 7.22 47.207 4.412 55.457 1.524 64.568.08 74.465.08c22.308 0 40.217 7.059 53.728 21.256 13.51 14.197 20.187 33.047 20.187 56.628 0 9.866-1.1 18.77-3.378 26.79-2.278 8.022-5.734 15.16-10.447 21.657 4.242 3.77 8.798 6.738 13.746 8.984 4.949 2.246 10.29 3.61 16.024 4.251l-10.918 26.55c-8.248-.802-15.788-2.888-22.544-6.257-6.755-3.288-12.724-7.78-17.752-13.475zm-38.646-21.897c11.626 0 20.659-4.091 27.1-12.273 6.52-8.181 9.74-19.571 9.74-34.25 0-14.678-3.3-26.148-9.819-34.33-6.52-8.341-15.553-12.432-27.02-12.432-11.469 0-20.423 4.17-27.021 12.513-6.599 8.261-9.898 19.732-9.898 34.25s3.3 25.907 9.819 34.17c6.52 8.26 15.553 12.352 27.1 12.352z" fill="#1C8143" fill-rule="nonzero"/><path d="M298.093 117.99c-6.99 12.672-15.788 22.137-26.235 28.474-10.526 6.337-22.7 9.465-36.683 9.465-21.993 0-39.431-7.059-52.313-21.096-12.96-14.036-19.48-32.966-19.48-56.788 0-23.342 6.755-42.191 20.265-56.468C197.157 7.299 214.91.16 236.903.16c13.825 0 25.843 3.209 36.054 9.626 10.212 6.416 18.145 15.72 23.8 27.913L268.56 52.137c-3.3-7.14-7.62-12.513-13.04-16.203-5.42-3.69-11.703-5.534-18.851-5.534-11.154 0-19.952 4.25-26.471 12.673-6.52 8.422-9.74 20.052-9.74 34.891 0 14.92 3.22 26.55 9.661 34.812 6.441 8.261 15.396 12.352 27.021 12.352 7.305 0 13.589-1.765 18.93-5.214 5.342-3.529 9.819-8.743 13.354-15.801l28.67 13.876zm64.332 37.698c-17.517 0-31.656-5.374-42.338-16.122-10.683-10.748-16.024-24.946-16.024-42.672 0-17.566 5.341-31.843 16.102-42.672 10.761-10.828 24.822-16.202 42.338-16.202 17.674 0 31.89 5.374 42.574 16.202C415.759 65.051 421.1 79.248 421.1 96.894c0 17.646-5.42 31.843-16.182 42.592-10.76 10.828-24.9 16.202-42.494 16.202zm-24.9-58.794c0 10.106 2.277 18.047 6.755 23.983 4.556 5.935 10.604 8.903 18.145 8.903 7.619 0 13.667-2.968 18.223-8.903 4.556-5.936 6.834-13.957 6.834-23.983s-2.278-18.047-6.756-24.063c-4.555-5.936-10.604-8.903-18.223-8.903-7.54 0-13.51 3.048-18.066 9.063-4.635 6.016-6.912 14.037-6.912 23.903zm97.871 55.185V41.629h32.755v10.267c4.242-4.331 8.955-7.54 14.218-9.625 5.262-2.086 11.232-3.209 17.83-3.209 11.783 0 20.58 3.77 26.314 11.39 5.734 7.62 8.64 19.25 8.64 34.972v66.655H502.4v-65.05c0-7.46-1.257-12.915-3.85-16.444-2.591-3.53-6.676-5.214-12.253-5.214-6.598 0-11.232 1.605-14.06 4.893-2.828 3.289-4.163 8.823-4.163 16.764v65.05h-32.677z" fill="#2B6CAD" fill-rule="nonzero"/><g transform="translate(369 174)"><path fill="#2B6CAD" d="M11.24 46.219L0 46.219 0 0.797 11.24 0.797z"/><path d="M18.466 46.219V12.73H28.74v3.113c1.33-1.313 2.808-2.286 4.483-2.918 1.651-.632 3.523-.973 5.593-.973 3.695 0 6.454 1.143 8.253 3.453 1.798 2.31 2.71 5.837 2.71 10.604v20.209H39.506V26.496c0-2.262-.395-3.915-1.208-4.985-.813-1.07-2.094-1.581-3.843-1.581-2.07 0-3.523.486-4.41 1.483-.862.997-1.305 2.675-1.305 5.083v19.723H18.466zm38.903 0V19.46h-5.181v-6.18h5.18c-.073-.687-.097-1.202-.122-1.497 0-.318-.024-.588-.024-.858 0-3.58.88-6.156 2.615-7.75 1.735-1.57 4.595-2.38 8.554-2.38.88 0 1.76.05 2.664.148.904.098 1.833.27 2.81.515v7.064h-1.71c-1.882 0-3.104.22-3.715.686-.611.466-.904 1.374-.904 2.772v1.3h6.33v6.18H67.56v26.758H57.369zm34.926 2.39c-5.532 0-9.996-1.674-13.37-5.022-3.373-3.348-5.06-7.771-5.06-13.293 0-5.472 1.687-9.92 5.085-13.293 3.373-3.349 7.838-5.048 13.345-5.048 5.58 0 10.07 1.674 13.443 5.048 3.373 3.373 5.06 7.796 5.06 13.293 0 5.472-1.711 9.895-5.11 13.268-3.373 3.373-7.837 5.047-13.393 5.047zm-7.863-18.315c0 3.148.72 5.622 2.133 7.47 1.438 1.85 3.348 2.775 5.73 2.775 2.38 0 4.315-.925 5.754-2.774 1.439-1.85 2.158-4.348 2.158-7.446 0-3.149-.72-5.622-2.133-7.496-1.439-1.85-3.349-2.774-5.755-2.774-2.38 0-4.266.95-5.705 2.824-1.463 1.849-2.182 4.347-2.182 7.42z" fill="#2B6CAD" fill-rule="nonzero"/><path d="M150.956 44.942c-1.7.936-3.573 1.625-5.619 2.118-2.045.492-4.214.714-6.506.714-7.024 0-12.643-2.167-16.882-6.501-4.214-4.334-6.334-10.121-6.334-17.361 0-3.965.641-7.487 1.923-10.614 1.281-3.128 3.204-5.787 5.767-8.003a20.329 20.329 0 0 1 6.95-3.965C132.841.443 135.7 0 138.805 0c7 0 12.618 2.167 16.857 6.526 4.24 4.359 6.334 10.146 6.334 17.386 0 3.029-.345 5.762-1.06 8.225a20.698 20.698 0 0 1-3.277 6.649 17.101 17.101 0 0 0 4.312 2.758c1.553.69 3.229 1.108 5.028 1.305L163.574 51c-2.587-.246-4.953-.887-7.073-1.92a17.583 17.583 0 0 1-5.545-4.138zm-12.15-6.723c3.648 0 6.482-1.256 8.503-3.768 2.045-2.511 3.056-6.008 3.056-10.515 0-4.506-1.035-8.028-3.08-10.54-2.046-2.536-4.88-3.792-8.503-3.792-3.599 0-6.408 1.28-8.478 3.842-2.07 2.56-3.08 6.058-3.08 10.515 0 4.457 1.034 7.954 3.08 10.49 2.07 2.512 4.904 3.768 8.502 3.768z" fill="#228D45" fill-rule="nonzero"/></g><path d="M332.737 220.264c-2.226 0-4.087-1.026-5.039-2.784h-.234V220h-3.032v-22.178h3.15v8.76h.248c.85-1.743 2.725-2.798 4.907-2.798 4.043 0 6.592 3.164 6.592 8.233 0 5.053-2.563 8.247-6.592 8.247zm-.908-13.653c-2.637 0-4.292 2.08-4.307 5.42.015 3.34 1.656 5.406 4.307 5.406 2.666 0 4.263-2.037 4.263-5.42 0-3.355-1.597-5.406-4.263-5.406zm12.065 19.175c-.264 0-1.01-.03-1.304-.073v-2.71c.25.044.733.059 1.026.059 1.494 0 2.344-.616 2.885-2.227l.235-.776-5.772-16.011h3.428l4 12.67h.248l3.985-12.67h3.34l-5.948 16.611c-1.362 3.882-2.871 5.127-6.123 5.127z" fill="#000" fill-rule="nonzero"/></g></svg>