<svg height="66" viewBox="0 0 255 66" width="255" xmlns="http://www.w3.org/2000/svg"><g fill="none" fill-rule="evenodd"><path d="m31.5.8c-14.4 0-27.1 10-30.4 24-.3 1.1-.5 2.4-.8 3.6v8.2c.1.4.3.8.3 1.1 1.3 8.2 5.2 14.7 11.6 19.8 5.5 4.5 11.9 6.5 18.9 6.9h.5c1.7 0 3.2-.4 4.5-1.4 1.9-1.7 2.6-4.3 1.7-6.9-.8-2.3-2.8-3.7-5.4-3.8-4.5-.1-8.6-1.1-12.1-3.8-5.5-4.3-8-10-7.8-17 .3-8.4 6.5-16.2 14.7-18 2-.5 4.2-.3 6.3-.6 3.1-.6 5-3.3 4.7-6.5s-2.6-5.4-5.7-5.5c-.4-.1-.6-.1-1-.1m17.1 0c-3.3 0-5.9 2.6-5.9 6 0 7-.1 14 0 21.2 0 8.4 6.4 15.8 14.5 17.6 1.8.4 3.7.5 5.5.5h2 2 .4c1.1 0 1.7.4 1.5 1.5-.1 3.4 0 7 0 10.5 0 2.4 1 4.2 3.1 5.4 1 .5 2 .8 3.1.8s2.3-.4 3.4-1c2-1.3 2.6-3.3 2.6-5.6 0-8.3 0-16.7 0-25 0-3.4 0-6.9 0-10.3 0-5 0-10.1 0-15.1 0-2.8-1.5-5-3.8-5.7-.8-.3-1.5-.4-2.3-.4-1.8 0-3.4.8-4.7 2.2-1 1.1-1.3 2.6-1.3 4v25c0 1.8 0 1.8-1.8 1.8-.8 0-1.7 0-2.4 0-.8 0-1.5 0-2.3 0-4.7 0-7.5-2.8-7.5-7.7 0-6.5 0-12.9 0-19.4 0-3.8-2.6-6.2-6.1-6.3" fill="#2e6dad"/><g fill="#010101" transform="translate(90 1)"><path d="m38.5 37.1c-.5-8.1-.9-17-.6-23.9h-.4c-1.4 6.8-3 14.1-4.9 21.2l-7.4 28.6h-4.5l-7.1-27.5c-2.1-7.8-3.8-15.3-5.1-22.4h-.3c.1 7.2-.4 15.7-.7 24.4l-1.2 25.8h-6.3l3.6-61.1h7.6l7.1 27.9c2.1 8.1 3.6 14 4.9 21h.3c1.2-7 2.5-12.8 4.5-21l6.9-27.9h7.8l3.5 61.1h-6.5z"/><path d="m60.1 42c.1 13.5 5.3 16.3 10.3 16.3 3.1 0 5.5-.7 7.2-1.6l1.2 5.1c-2.4 1.4-6.2 2.1-9.7 2.1-10.4 0-15.9-8.5-15.9-22 0-14.2 6-23.1 14.8-23.1 8.9 0 12.5 9.4 12.5 19.3 0 1.7-.1 2.9-.2 4zm13.8-5.1c.1-8.8-3.2-12.7-6.5-12.7-4.5 0-6.9 6.7-7.2 12.7zm40.7-36.3v52.2c0 3 .3 8 .4 10.5h-6l-.5-5.4h-.4c-1.4 3.1-4.5 6.2-9.2 6.2-7.4 0-12.8-8-12.8-22.5 0-15.6 6.4-22.8 13.2-22.8 3.2 0 6.3 1.4 8 5.2h.2v-23.3h7.1zm-7 35.6c0-.9 0-1.9-.1-2.9-.4-4.5-3.2-8.5-6.5-8.5-5.8 0-7.8 8.1-7.8 16.9 0 9.2 2.4 16.7 7.4 16.7 2.2 0 5.2-1.2 6.7-7.5.3-.8.3-1.8.3-2.9zm20-23.5c-2.3 0-4-1.8-4-4.5s1.8-4.5 4.1-4.5c2.5 0 4.2 1.8 4.2 4.5s-1.7 4.5-4.3 4.5zm-3.3 50.6v-43.9h7v43.9zm39.8-9.9c0 3.4 0 7.2.5 10h-6.3l-.5-4.6h-.3c-1.9 3.4-5 5.3-8.7 5.3-5.9 0-10.4-4.9-10.4-12.5 0-11.1 8.8-15.9 18.7-15.9v-1.4c0-5.9-1.4-10-7-10-2.7 0-5.2.8-7.2 2.3l-1.5-4.9c1.9-1.4 5.9-2.9 10.2-2.9 8.8 0 12.5 5.8 12.5 15.6zm-6.8-12.8c-3.6 0-12.1.7-12.1 10.2 0 5.8 2.9 7.8 5.3 7.8 3.1 0 5.6-2.3 6.4-6.6.2-.8.3-1.7.3-2.5z" fill-rule="nonzero"/></g></g></svg>