<svg height="28" viewBox="0 0 92 28" width="92" xmlns="http://www.w3.org/2000/svg"><g fill="none" fill-rule="evenodd"><path d="m.196.582h6.159v25.047h-6.159z" fill="#296cae"/><g fill-rule="nonzero"><path d="m10.399 25.629v-18.621h5.633v1.732c.725-.727 1.543-1.27 2.454-1.628.912-.358 1.936-.537 3.071-.537 2.029 0 3.538.641 4.528 1.923.991 1.281 1.486 3.245 1.486 5.889v11.242h-5.634v-10.965c0-1.258-.221-2.182-.665-2.771s-1.145-.884-2.105-.884c-1.13 0-1.935.275-2.415.823-.48.549-.72 1.493-.72 2.832v10.965zm21.292 0v-14.758h-2.862v-3.413h2.862c-.036-.381-.057-.658-.063-.831-.007-.174-.009-.329-.009-.468 0-1.974.481-3.398 1.443-4.27.962-.871 2.538-1.307 4.728-1.307.48 0 .971.028 1.47.086s1.019.15 1.561.277v3.898h-.942c-1.039 0-1.724.127-2.056.381-.333.254-.498.762-.498 1.524v.71h3.496v3.413h-3.496v14.758zm15.016-9.302c0 1.698.39 3.046 1.169 4.045s1.82 1.498 3.125 1.498c1.304 0 2.348-.502 3.133-1.507s1.177-2.35 1.177-4.036c0-1.698-.389-3.049-1.168-4.053-.779-1.005-1.827-1.507-3.142-1.507-1.293 0-2.331.508-3.116 1.524s-1.178 2.362-1.178 4.036zm4.294 9.908c-3.02 0-5.45-.906-7.292-2.72-1.841-1.812-2.762-4.209-2.762-7.188 0-2.968.924-5.364 2.772-7.189 1.847-1.824 4.274-2.736 7.282-2.736 3.042 0 5.485.909 7.326 2.728 1.842 1.819 2.763 4.217 2.763 7.197 0 2.968-.927 5.361-2.781 7.18-1.853 1.819-4.29 2.728-7.308 2.728z" fill="#296cae"/><path d="m76.028 20.986c1.996 0 3.553-.689 4.672-2.069 1.118-1.38 1.677-3.306 1.677-5.777s-.562-4.403-1.687-5.794c-1.125-1.392-2.678-2.088-4.662-2.088-1.971 0-3.522.702-4.652 2.105-1.131 1.403-1.696 3.329-1.696 5.777s.562 4.368 1.686 5.759c1.125 1.392 2.679 2.087 4.662 2.087m6.657 3.69c-.931.508-1.958.895-3.082 1.161-1.124.265-2.315.398-3.572.398-3.856 0-6.941-1.189-9.256-3.568-2.314-2.379-3.472-5.555-3.472-9.527 0-2.171.353-4.114 1.061-5.829.707-1.715 1.761-3.179 3.163-4.391 1.124-.97 2.396-1.698 3.816-2.183s2.981-.727 4.685-.727c3.843 0 6.925 1.195 9.245 3.586 2.32 2.39 3.48 5.571 3.48 9.544 0 1.663-.193 3.167-.579 4.512-.387 1.346-.984 2.561-1.794 3.646.725.635 1.516 1.141 2.373 1.516.858.375 1.776.615 2.754.719l-1.884 4.469c-1.425-.139-2.72-.488-3.885-1.048-1.166-.561-2.183-1.32-3.053-2.278" fill="#1e8d44"/></g></g></svg>